<svg width="380" height="310" viewBox="0 0 380 310" fill="none" xmlns="http://www.w3.org/2000/svg">
<rect width="380" height="310" rx="20" fill="#EFFFBF"/>
<rect width="380" height="310" rx="20" fill="url(#paint0_linear_77_146)"/>
<g filter="url(#filter0_d_77_146)">
<path d="M45.08 247.78C49.08 247.78 51.64 249.1 51.64 251.3C51.64 253.46 49.08 254.78 45.08 254.78C41.08 254.78 38.52 253.46 38.52 251.3C38.52 249.1 41.08 247.78 45.08 247.78ZM45.08 249.78C42.58 249.78 41.16 250.3 41.16 251.3C41.16 252.28 42.58 252.78 45.08 252.78C47.58 252.78 49 252.28 49 251.3C49 250.3 47.58 249.78 45.08 249.78ZM38.72 237.08H50.44V239.18H38.72V237.08ZM36.84 244.52H53.52V246.64H36.84V244.52ZM43.02 241.3H45.66V245.06H43.02V241.3ZM48.9 237.08H51.54V238.6C51.54 240.06 51.54 241.64 51.04 243.56L48.4 243.28C48.9 241.38 48.9 240.04 48.9 238.6V237.08ZM64.1184 238.96H68.6184V241.06H64.1184V238.96ZM64.1184 242.74H68.6184V244.88H64.1184V242.74ZM55.9784 237.38H58.6184V239.84H62.1384V237.38H64.7384V246.28H55.9784V237.38ZM58.6184 241.9V244.2H62.1384V241.9H58.6184ZM68.0384 236.26H70.6984V247.32H68.0384V236.26ZM64.4184 247.64C68.3384 247.64 70.7584 248.98 70.7584 251.22C70.7584 253.48 68.3384 254.78 64.4184 254.78C60.4984 254.78 58.0784 253.48 58.0784 251.22C58.0784 248.98 60.4984 247.64 64.4184 247.64ZM64.4184 249.68C62.0184 249.68 60.7384 250.16 60.7384 251.22C60.7384 252.26 62.0184 252.76 64.4184 252.76C66.8384 252.76 68.1184 252.26 68.1184 251.22C68.1184 250.16 66.8384 249.68 64.4184 249.68ZM84.9329 238.455V253H81.8576V241.374H81.7724L78.4414 243.462V240.734L82.0423 238.455H84.9329ZM94.093 253.32C92.8714 253.315 91.8203 253.014 90.9396 252.418C90.0637 251.821 89.389 250.957 88.9155 249.825C88.4467 248.694 88.2147 247.332 88.2195 245.741C88.2195 244.155 88.4538 242.804 88.9226 241.686C89.3961 240.569 90.0708 239.719 90.9467 239.136C91.8274 238.549 92.8762 238.256 94.093 238.256C95.3099 238.256 96.3563 238.549 97.2322 239.136C98.1129 239.723 98.79 240.576 99.2635 241.693C99.737 242.806 99.9714 244.155 99.9666 245.741C99.9666 247.337 99.7299 248.701 99.2564 249.832C98.7876 250.964 98.1153 251.828 97.2393 252.425C96.3634 253.021 95.3146 253.32 94.093 253.32ZM94.093 250.77C94.9264 250.77 95.5916 250.351 96.0888 249.513C96.5859 248.675 96.8321 247.418 96.8274 245.741C96.8274 244.638 96.7138 243.72 96.4865 242.986C96.264 242.252 95.9467 241.7 95.5348 241.331C95.1276 240.962 94.647 240.777 94.093 240.777C93.2644 240.777 92.6016 241.191 92.1044 242.02C91.6072 242.848 91.3563 244.089 91.3516 245.741C91.3516 246.859 91.4628 247.792 91.6854 248.54C91.9126 249.283 92.2322 249.842 92.6442 250.216C93.0561 250.585 93.5391 250.77 94.093 250.77ZM115.1 236.26H117.64V254.78H115.1V236.26ZM112.76 243.24H115.82V245.36H112.76V243.24ZM107.24 238.52H109.78C109.78 243.74 108.26 247.96 103.08 250.98L101.54 249.14C105.76 246.64 107.24 243.52 107.24 239.08V238.52ZM102.48 238.52H108.02V240.66H102.48V238.52ZM111 236.74H113.48V253.98H111V236.74ZM120.199 250.58H136.959V252.74H120.199V250.58ZM127.219 247.08H129.879V251.46H127.219V247.08ZM122.079 237.46H135.079V243.62H124.759V246.74H122.119V241.54H132.439V239.56H122.079V237.46ZM122.119 245.68H135.499V247.82H122.119V245.68ZM36.82 274.54H53.58V276.72H36.82V274.54ZM43.82 270.36H46.48V275.52H43.82V270.36ZM38.1 261.78H52.2V263.9H38.1V261.78ZM38.18 269.16H52.14V271.24H38.18V269.16ZM40.62 263.54H43.28V269.4H40.62V263.54ZM47.04 263.54H49.68V269.4H47.04V263.54ZM67.9184 260.28H70.5984V273.58H67.9184V260.28ZM58.2584 276.34H71.0584V278.46H58.2584V276.34ZM58.2584 272.24H60.9184V277.2H58.2584V272.24ZM60.5184 261.44C63.3584 261.44 65.5384 263.4 65.5384 266.14C65.5384 268.86 63.3584 270.84 60.5184 270.84C57.6784 270.84 55.4784 268.86 55.4784 266.14C55.4784 263.4 57.6784 261.44 60.5184 261.44ZM60.5184 263.74C59.1384 263.74 58.0784 264.62 58.0784 266.14C58.0784 267.64 59.1384 268.52 60.5184 268.52C61.8784 268.52 62.9384 267.64 62.9384 266.14C62.9384 264.62 61.8784 263.74 60.5184 263.74ZM75.5769 269.8H88.5969V271.88H75.5769V269.8ZM73.6169 274.5H90.3769V276.66H73.6169V274.5ZM75.5769 261.6H88.4369V263.74H78.2769V270.38H75.5769V261.6ZM77.4569 265.68H88.0169V267.74H77.4569V265.68ZM97.0032 277V274.784L102.181 269.99C102.621 269.564 102.99 269.18 103.289 268.839C103.592 268.499 103.821 268.165 103.978 267.838C104.134 267.507 104.212 267.149 104.212 266.766C104.212 266.339 104.115 265.973 103.921 265.665C103.727 265.352 103.462 265.113 103.125 264.947C102.789 264.777 102.408 264.692 101.982 264.692C101.537 264.692 101.149 264.782 100.817 264.962C100.486 265.142 100.23 265.4 100.05 265.736C99.8701 266.072 99.7802 266.472 99.7802 266.936H96.8612C96.8612 265.984 97.0766 265.158 97.5075 264.457C97.9383 263.757 98.542 263.214 99.3185 262.831C100.095 262.447 100.99 262.256 102.003 262.256C103.045 262.256 103.952 262.44 104.723 262.81C105.5 263.174 106.104 263.681 106.534 264.33C106.965 264.978 107.181 265.722 107.181 266.56C107.181 267.109 107.072 267.651 106.854 268.186C106.641 268.721 106.26 269.315 105.711 269.969C105.161 270.617 104.387 271.396 103.388 272.305L101.265 274.386V274.486H107.373V277H97.0032ZM115.304 277.32C114.082 277.315 113.031 277.014 112.151 276.418C111.275 275.821 110.6 274.957 110.126 273.825C109.658 272.694 109.426 271.332 109.43 269.741C109.43 268.155 109.665 266.804 110.134 265.686C110.607 264.569 111.282 263.719 112.158 263.136C113.038 262.549 114.087 262.256 115.304 262.256C116.521 262.256 117.567 262.549 118.443 263.136C119.324 263.723 120.001 264.576 120.474 265.693C120.948 266.806 121.182 268.155 121.178 269.741C121.178 271.337 120.941 272.701 120.467 273.832C119.999 274.964 119.326 275.828 118.45 276.425C117.574 277.021 116.526 277.32 115.304 277.32ZM115.304 274.77C116.137 274.77 116.803 274.351 117.3 273.513C117.797 272.675 118.043 271.418 118.038 269.741C118.038 268.638 117.925 267.72 117.697 266.986C117.475 266.252 117.158 265.7 116.746 265.331C116.339 264.962 115.858 264.777 115.304 264.777C114.475 264.777 113.813 265.191 113.315 266.02C112.818 266.848 112.567 268.089 112.562 269.741C112.562 270.859 112.674 271.792 112.896 272.54C113.124 273.283 113.443 273.842 113.855 274.216C114.267 274.585 114.75 274.77 115.304 274.77ZM129.074 277.32C127.852 277.315 126.801 277.014 125.92 276.418C125.044 275.821 124.369 274.957 123.896 273.825C123.427 272.694 123.195 271.332 123.2 269.741C123.2 268.155 123.434 266.804 123.903 265.686C124.377 264.569 125.051 263.719 125.927 263.136C126.808 262.549 127.857 262.256 129.074 262.256C130.29 262.256 131.337 262.549 132.213 263.136C133.093 263.723 133.77 264.576 134.244 265.693C134.717 266.806 134.952 268.155 134.947 269.741C134.947 271.337 134.71 272.701 134.237 273.832C133.768 274.964 133.096 275.828 132.22 276.425C131.344 277.021 130.295 277.32 129.074 277.32ZM129.074 274.77C129.907 274.77 130.572 274.351 131.069 273.513C131.566 272.675 131.813 271.418 131.808 269.741C131.808 268.638 131.694 267.72 131.467 266.986C131.244 266.252 130.927 265.7 130.515 265.331C130.108 264.962 129.627 264.777 129.074 264.777C128.245 264.777 127.582 265.191 127.085 266.02C126.588 266.848 126.337 268.089 126.332 269.741C126.332 270.859 126.443 271.792 126.666 272.54C126.893 273.283 127.213 273.842 127.625 274.216C128.037 274.585 128.52 274.77 129.074 274.77ZM142.843 277.32C141.621 277.315 140.57 277.014 139.69 276.418C138.814 275.821 138.139 274.957 137.665 273.825C137.197 272.694 136.965 271.332 136.969 269.741C136.969 268.155 137.204 266.804 137.673 265.686C138.146 264.569 138.821 263.719 139.697 263.136C140.577 262.549 141.626 262.256 142.843 262.256C144.06 262.256 145.106 262.549 145.982 263.136C146.863 263.723 147.54 264.576 148.013 265.693C148.487 266.806 148.721 268.155 148.717 269.741C148.717 271.337 148.48 272.701 148.006 273.832C147.538 274.964 146.865 275.828 145.989 276.425C145.113 277.021 144.065 277.32 142.843 277.32ZM142.843 274.77C143.676 274.77 144.342 274.351 144.839 273.513C145.336 272.675 145.582 271.418 145.577 269.741C145.577 268.638 145.464 267.72 145.237 266.986C145.014 266.252 144.697 265.7 144.285 265.331C143.878 264.962 143.397 264.777 142.843 264.777C142.014 264.777 141.352 265.191 140.854 266.02C140.357 266.848 140.106 268.089 140.102 269.741C140.102 270.859 140.213 271.792 140.435 272.54C140.663 273.283 140.982 273.842 141.394 274.216C141.806 274.585 142.289 274.77 142.843 274.77ZM155.35 269.76H158.01V273.82H155.35V269.76ZM163.47 260.26H166.13V274.28H163.47V260.26ZM152.79 276.34H166.53V278.46H152.79V276.34ZM152.79 272.96H155.45V276.9H152.79V272.96ZM150.79 270.56L150.47 268.44C153.85 268.44 158.37 268.4 162.25 267.9L162.41 269.8C158.47 270.46 154.13 270.56 150.79 270.56ZM159.97 271.02H164.05V272.84H159.97V271.02ZM156.43 260.9C159.13 260.9 161.03 262.24 161.03 264.2C161.03 266.18 159.13 267.5 156.43 267.5C153.71 267.5 151.81 266.18 151.81 264.2C151.81 262.24 153.71 260.9 156.43 260.9ZM156.43 262.84C155.19 262.84 154.33 263.3 154.33 264.2C154.33 265.1 155.19 265.56 156.43 265.56C157.65 265.56 158.51 265.1 158.51 264.2C158.51 263.3 157.65 262.84 156.43 262.84ZM176.658 271.6H189.178V273.72H179.298V277.66H176.658V271.6ZM176.658 276.48H189.438V278.58H176.658V276.48ZM186.398 260.26H189.058V270.76H186.398V260.26ZM182.578 264.56H186.958V266.72H182.578V264.56ZM178.678 261.18C181.438 261.18 183.558 263.08 183.558 265.72C183.558 268.34 181.438 270.26 178.678 270.26C175.898 270.26 173.778 268.34 173.778 265.72C173.778 263.08 175.898 261.18 178.678 261.18ZM178.678 263.42C177.318 263.42 176.318 264.26 176.318 265.72C176.318 267.16 177.318 268.02 178.678 268.02C180.018 268.02 181.018 267.16 181.018 265.72C181.018 264.26 180.018 263.42 178.678 263.42ZM196.116 263.18H198.216V265.26C198.216 269.44 196.456 273.7 193.056 275.3L191.556 273.2C194.616 271.76 196.116 268.3 196.116 265.26V263.18ZM196.676 263.18H198.776V265.26C198.776 268.06 200.216 271.34 203.256 272.74L201.796 274.84C198.396 273.26 196.676 269.2 196.676 265.26V263.18ZM192.276 262.04H202.436V264.22H192.276V262.04ZM203.796 260.26H206.476V278.78H203.796V260.26ZM205.876 267.32H209.156V269.52H205.876V267.32ZM214.377 262.455L214.1 272.639H211.501L211.217 262.455H214.377ZM212.8 277.185C212.332 277.185 211.929 277.019 211.593 276.688C211.257 276.351 211.091 275.949 211.096 275.48C211.091 275.016 211.257 274.618 211.593 274.287C211.929 273.955 212.332 273.79 212.8 273.79C213.25 273.79 213.646 273.955 213.987 274.287C214.327 274.618 214.5 275.016 214.505 275.48C214.5 275.793 214.417 276.079 214.256 276.339C214.1 276.595 213.894 276.801 213.638 276.957C213.383 277.109 213.103 277.185 212.8 277.185Z" fill="white"/>
</g>
<path fill-rule="evenodd" clip-rule="evenodd" d="M225.536 115.577L266.237 90.7329L284.474 126.649C288.879 146.271 264.739 153.474 245.357 152.302L225.536 115.577Z" fill="#92C501"/>
<path fill-rule="evenodd" clip-rule="evenodd" d="M216.288 141.23L194.88 179.845L216.288 219L216.817 203.338H236.375C243.511 203.968 252.761 199.198 256.197 192.267L281.306 145.28C273.025 153.651 262.376 155.811 250.119 155.811H217.083L216.288 141.23Z" fill="#92C501"/>
<path fill-rule="evenodd" clip-rule="evenodd" d="M168.455 93.6211L127.441 69.3213L149.322 35.599C163.976 22.1396 181.855 40.2074 190.26 58.089L168.455 93.6211Z" fill="#92C501"/>
<path fill-rule="evenodd" clip-rule="evenodd" d="M194.899 89.4328L238.333 89.8131L261.448 51.6845L247.789 58.8147L238.295 41.3437C235.371 34.6633 226.798 28.7156 219.2 29.0105L166.804 29.3882C177.987 32.7227 185.005 41.1863 190.954 52.1356L206.989 81.6478L194.896 89.434L194.899 89.4328Z" fill="#92C501"/>
<path fill-rule="evenodd" clip-rule="evenodd" d="M96.0549 91.6091L108.763 101.538L96.8023 124.452C90.822 135.017 101.096 145.31 107.642 148.892C114.086 152.419 124.088 152.838 133.432 152.711L150.252 125.215L162.96 132.089L140.908 91.2273L96.0549 91.6091Z" fill="#92C501"/>
<path fill-rule="evenodd" clip-rule="evenodd" d="M97.9238 144.692L125.208 195.103C130.69 202.104 141.031 203.759 151.747 203.504H180.527V155.767L125.956 155.385C117.484 155.894 106.396 154.112 97.9238 144.692Z" fill="#92C501"/>
<defs>
<filter id="filter0_d_77_146" x="26.8199" y="226.26" width="197.685" height="62.52" filterUnits="userSpaceOnUse" color-interpolation-filters="sRGB">
<feFlood flood-opacity="0" result="BackgroundImageFix"/>
<feColorMatrix in="SourceAlpha" type="matrix" values="0 0 0 0 0 0 0 0 0 0 0 0 0 0 0 0 0 0 127 0" result="hardAlpha"/>
<feOffset/>
<feGaussianBlur stdDeviation="5"/>
<feComposite in2="hardAlpha" operator="out"/>
<feColorMatrix type="matrix" values="0 0 0 0 0 0 0 0 0 0 0 0 0 0 0 0 0 0 0.25 0"/>
<feBlend mode="normal" in2="BackgroundImageFix" result="effect1_dropShadow_77_146"/>
<feBlend mode="normal" in="SourceGraphic" in2="effect1_dropShadow_77_146" result="shape"/>
</filter>
<linearGradient id="paint0_linear_77_146" x1="190" y1="0" x2="190" y2="310" gradientUnits="userSpaceOnUse">
<stop offset="0.515" stop-color="white" stop-opacity="0"/>
<stop offset="0.5151" stop-color="#FDFDFD" stop-opacity="0.0119357"/>
<stop offset="0.775" stop-color="#7D7D7D" stop-opacity="0.5"/>
<stop offset="1" stop-color="#7D7D7D" stop-opacity="0.25"/>
</linearGradient>
</defs>
</svg>
