<svg width="300" height="200" viewBox="0 0 300 200" fill="none" xmlns="http://www.w3.org/2000/svg">
<rect width="300" height="200" rx="20" fill="#EFFFBF"/>
<path fill-rule="evenodd" clip-rule="evenodd" d="M229.315 97.2372L257.163 80.2383L269.64 104.812C272.654 118.238 256.138 123.166 242.876 122.364L229.315 97.2372Z" fill="#92C501"/>
<path fill-rule="evenodd" clip-rule="evenodd" d="M222.986 114.789L208.339 141.21L222.986 168L223.348 157.284H236.73C241.613 157.715 247.942 154.451 250.293 149.709L267.472 117.56C261.806 123.287 254.52 124.765 246.134 124.765H223.53L222.986 114.789Z" fill="#92C501"/>
<path fill-rule="evenodd" clip-rule="evenodd" d="M190.259 82.2144L162.196 65.5882L177.168 42.515C187.194 33.3059 199.427 45.6681 205.178 57.903L190.259 82.2144Z" fill="#92C501"/>
<path fill-rule="evenodd" clip-rule="evenodd" d="M208.352 79.3487L238.07 79.6089L253.885 53.5209L244.54 58.3994L238.044 46.4456C236.043 41.8748 230.178 37.8053 224.979 38.0071L189.129 38.2655C196.781 40.547 201.582 46.3379 205.653 53.8295L216.624 74.0221L208.35 79.3495L208.352 79.3487Z" fill="#92C501"/>
<path fill-rule="evenodd" clip-rule="evenodd" d="M140.722 80.8378L149.417 87.6314L141.233 103.309C137.141 110.538 144.171 117.581 148.65 120.031C153.059 122.444 159.902 122.731 166.296 122.644L177.804 103.831L186.499 108.535L171.411 80.5765L140.722 80.8378Z" fill="#92C501"/>
<path fill-rule="evenodd" clip-rule="evenodd" d="M142 117.158L160.669 151.649C164.42 156.44 171.495 157.572 178.827 157.398H198.519V124.735L161.181 124.474C155.384 124.822 147.797 123.603 142 117.158Z" fill="#92C501"/>
<path d="M33.08 42.78C37.08 42.78 39.64 44.1 39.64 46.3C39.64 48.46 37.08 49.78 33.08 49.78C29.08 49.78 26.52 48.46 26.52 46.3C26.52 44.1 29.08 42.78 33.08 42.78ZM33.08 44.78C30.58 44.78 29.16 45.3 29.16 46.3C29.16 47.28 30.58 47.78 33.08 47.78C35.58 47.78 37 47.28 37 46.3C37 45.3 35.58 44.78 33.08 44.78ZM26.72 32.08H38.44V34.18H26.72V32.08ZM24.84 39.52H41.52V41.64H24.84V39.52ZM31.02 36.3H33.66V40.06H31.02V36.3ZM36.9 32.08H39.54V33.6C39.54 35.06 39.54 36.64 39.04 38.56L36.4 38.28C36.9 36.38 36.9 35.04 36.9 33.6V32.08ZM52.1184 33.96H56.6184V36.06H52.1184V33.96ZM52.1184 37.74H56.6184V39.88H52.1184V37.74ZM43.9784 32.38H46.6184V34.84H50.1384V32.38H52.7384V41.28H43.9784V32.38ZM46.6184 36.9V39.2H50.1384V36.9H46.6184ZM56.0384 31.26H58.6984V42.32H56.0384V31.26ZM52.4184 42.64C56.3384 42.64 58.7584 43.98 58.7584 46.22C58.7584 48.48 56.3384 49.78 52.4184 49.78C48.4984 49.78 46.0784 48.48 46.0784 46.22C46.0784 43.98 48.4984 42.64 52.4184 42.64ZM52.4184 44.68C50.0184 44.68 48.7384 45.16 48.7384 46.22C48.7384 47.26 50.0184 47.76 52.4184 47.76C54.8384 47.76 56.1184 47.26 56.1184 46.22C56.1184 45.16 54.8384 44.68 52.4184 44.68ZM72.9329 33.4545V48H69.8576V36.3736H69.7724L66.4414 38.4616V35.7344L70.0423 33.4545H72.9329ZM82.093 48.3196C80.8714 48.3149 79.8203 48.0142 78.9396 47.4176C78.0637 46.821 77.389 45.9569 76.9155 44.8253C76.4467 43.6937 76.2147 42.3324 76.2195 40.7415C76.2195 39.1553 76.4538 37.8035 76.9226 36.6861C77.3961 35.5687 78.0708 34.7187 78.9467 34.1364C79.8274 33.5492 80.8762 33.2557 82.093 33.2557C83.3099 33.2557 84.3563 33.5492 85.2322 34.1364C86.1129 34.7235 86.79 35.5758 87.2635 36.6932C87.737 37.8059 87.9714 39.1553 87.9666 40.7415C87.9666 42.3371 87.7299 43.7008 87.2564 44.8324C86.7876 45.964 86.1153 46.8281 85.2393 47.4247C84.3634 48.0213 83.3146 48.3196 82.093 48.3196ZM82.093 45.7699C82.9264 45.7699 83.5916 45.3509 84.0888 44.5128C84.5859 43.6747 84.8321 42.4176 84.8274 40.7415C84.8274 39.6383 84.7138 38.7197 84.4865 37.9858C84.264 37.2519 83.9467 36.7003 83.5348 36.331C83.1276 35.9616 82.647 35.777 82.093 35.777C81.2644 35.777 80.6016 36.1913 80.1044 37.0199C79.6072 37.8485 79.3563 39.089 79.3516 40.7415C79.3516 41.8589 79.4628 42.7917 79.6854 43.5398C79.9126 44.2831 80.2322 44.8419 80.6442 45.2159C81.0561 45.5852 81.5391 45.7699 82.093 45.7699ZM103.1 31.26H105.64V49.78H103.1V31.26ZM100.76 38.24H103.82V40.36H100.76V38.24ZM95.2405 33.52H97.7805C97.7805 38.74 96.2605 42.96 91.0805 45.98L89.5405 44.14C93.7605 41.64 95.2405 38.52 95.2405 34.08V33.52ZM90.4805 33.52H96.0205V35.66H90.4805V33.52ZM99.0005 31.74H101.48V48.98H99.0005V31.74ZM108.199 45.58H124.959V47.74H108.199V45.58ZM115.219 42.08H117.879V46.46H115.219V42.08ZM110.079 32.46H123.079V38.62H112.759V41.74H110.119V36.54H120.439V34.56H110.079V32.46ZM110.119 40.68H123.499V42.82H110.119V40.68ZM24.82 69.54H41.58V71.72H24.82V69.54ZM31.82 65.36H34.48V70.52H31.82V65.36ZM26.1 56.78H40.2V58.9H26.1V56.78ZM26.18 64.16H40.14V66.24H26.18V64.16ZM28.62 58.54H31.28V64.4H28.62V58.54ZM35.04 58.54H37.68V64.4H35.04V58.54ZM55.9184 55.28H58.5984V68.58H55.9184V55.28ZM46.2584 71.34H59.0584V73.46H46.2584V71.34ZM46.2584 67.24H48.9184V72.2H46.2584V67.24ZM48.5184 56.44C51.3584 56.44 53.5384 58.4 53.5384 61.14C53.5384 63.86 51.3584 65.84 48.5184 65.84C45.6784 65.84 43.4784 63.86 43.4784 61.14C43.4784 58.4 45.6784 56.44 48.5184 56.44ZM48.5184 58.74C47.1384 58.74 46.0784 59.62 46.0784 61.14C46.0784 62.64 47.1384 63.52 48.5184 63.52C49.8784 63.52 50.9384 62.64 50.9384 61.14C50.9384 59.62 49.8784 58.74 48.5184 58.74ZM63.5769 64.8H76.5969V66.88H63.5769V64.8ZM61.6169 69.5H78.3769V71.66H61.6169V69.5ZM63.5769 56.6H76.4369V58.74H66.2769V65.38H63.5769V56.6ZM65.4569 60.68H76.0169V62.74H65.4569V60.68ZM85.0032 72V69.7841L90.1808 64.9901C90.6211 64.5639 90.9904 64.1804 91.2887 63.8395C91.5917 63.4986 91.8214 63.1648 91.9776 62.8381C92.1339 62.5066 92.212 62.1491 92.212 61.7656C92.212 61.3395 92.1149 60.9725 91.9208 60.6648C91.7267 60.3523 91.4615 60.1132 91.1254 59.9474C90.7892 59.777 90.408 59.6918 89.9819 59.6918C89.5368 59.6918 89.1486 59.7817 88.8171 59.9616C88.4857 60.1416 88.23 60.3996 88.0501 60.7358C87.8701 61.072 87.7802 61.4721 87.7802 61.9361H84.8612C84.8612 60.9844 85.0766 60.1581 85.5075 59.4574C85.9383 58.7566 86.542 58.2145 87.3185 57.831C88.0951 57.4474 88.9899 57.2557 90.0032 57.2557C91.0449 57.2557 91.9516 57.4403 92.7234 57.8097C93.4999 58.1742 94.1036 58.6809 94.5344 59.3295C94.9653 59.9782 95.1808 60.7216 95.1808 61.5597C95.1808 62.1089 95.0719 62.651 94.854 63.1861C94.641 63.7211 94.2598 64.3153 93.7106 64.9688C93.1613 65.6174 92.3872 66.3963 91.3881 67.3054L89.2646 69.3864V69.4858H95.3725V72H85.0032ZM103.304 72.3196C102.082 72.3149 101.031 72.0142 100.151 71.4176C99.2746 70.821 98.5999 69.9569 98.1264 68.8253C97.6577 67.6937 97.4257 66.3324 97.4304 64.7415C97.4304 63.1553 97.6648 61.8035 98.1335 60.6861C98.607 59.5687 99.2817 58.7187 100.158 58.1364C101.038 57.5492 102.087 57.2557 103.304 57.2557C104.521 57.2557 105.567 57.5492 106.443 58.1364C107.324 58.7235 108.001 59.5758 108.474 60.6932C108.948 61.8059 109.182 63.1553 109.178 64.7415C109.178 66.3371 108.941 67.7008 108.467 68.8324C107.999 69.964 107.326 70.8281 106.45 71.4247C105.574 72.0213 104.526 72.3196 103.304 72.3196ZM103.304 69.7699C104.137 69.7699 104.803 69.3509 105.3 68.5128C105.797 67.6747 106.043 66.4176 106.038 64.7415C106.038 63.6383 105.925 62.7197 105.697 61.9858C105.475 61.2519 105.158 60.7003 104.746 60.331C104.339 59.9616 103.858 59.777 103.304 59.777C102.475 59.777 101.813 60.1913 101.315 61.0199C100.818 61.8485 100.567 63.089 100.562 64.7415C100.562 65.8589 100.674 66.7917 100.896 67.5398C101.124 68.2831 101.443 68.8419 101.855 69.2159C102.267 69.5852 102.75 69.7699 103.304 69.7699ZM117.074 72.3196C115.852 72.3149 114.801 72.0142 113.92 71.4176C113.044 70.821 112.369 69.9569 111.896 68.8253C111.427 67.6937 111.195 66.3324 111.2 64.7415C111.2 63.1553 111.434 61.8035 111.903 60.6861C112.377 59.5687 113.051 58.7187 113.927 58.1364C114.808 57.5492 115.857 57.2557 117.074 57.2557C118.29 57.2557 119.337 57.5492 120.213 58.1364C121.093 58.7235 121.77 59.5758 122.244 60.6932C122.717 61.8059 122.952 63.1553 122.947 64.7415C122.947 66.3371 122.71 67.7008 122.237 68.8324C121.768 69.964 121.096 70.8281 120.22 71.4247C119.344 72.0213 118.295 72.3196 117.074 72.3196ZM117.074 69.7699C117.907 69.7699 118.572 69.3509 119.069 68.5128C119.566 67.6747 119.813 66.4176 119.808 64.7415C119.808 63.6383 119.694 62.7197 119.467 61.9858C119.244 61.2519 118.927 60.7003 118.515 60.331C118.108 59.9616 117.627 59.777 117.074 59.777C116.245 59.777 115.582 60.1913 115.085 61.0199C114.588 61.8485 114.337 63.089 114.332 64.7415C114.332 65.8589 114.443 66.7917 114.666 67.5398C114.893 68.2831 115.213 68.8419 115.625 69.2159C116.037 69.5852 116.52 69.7699 117.074 69.7699ZM130.843 72.3196C129.621 72.3149 128.57 72.0142 127.69 71.4176C126.814 70.821 126.139 69.9569 125.665 68.8253C125.197 67.6937 124.965 66.3324 124.969 64.7415C124.969 63.1553 125.204 61.8035 125.673 60.6861C126.146 59.5687 126.821 58.7187 127.697 58.1364C128.577 57.5492 129.626 57.2557 130.843 57.2557C132.06 57.2557 133.106 57.5492 133.982 58.1364C134.863 58.7235 135.54 59.5758 136.013 60.6932C136.487 61.8059 136.721 63.1553 136.717 64.7415C136.717 66.3371 136.48 67.7008 136.006 68.8324C135.538 69.964 134.865 70.8281 133.989 71.4247C133.113 72.0213 132.065 72.3196 130.843 72.3196ZM130.843 69.7699C131.676 69.7699 132.342 69.3509 132.839 68.5128C133.336 67.6747 133.582 66.4176 133.577 64.7415C133.577 63.6383 133.464 62.7197 133.237 61.9858C133.014 61.2519 132.697 60.7003 132.285 60.331C131.878 59.9616 131.397 59.777 130.843 59.777C130.014 59.777 129.352 60.1913 128.854 61.0199C128.357 61.8485 128.106 63.089 128.102 64.7415C128.102 65.8589 128.213 66.7917 128.435 67.5398C128.663 68.2831 128.982 68.8419 129.394 69.2159C129.806 69.5852 130.289 69.7699 130.843 69.7699ZM143.35 64.76H146.01V68.82H143.35V64.76ZM151.47 55.26H154.13V69.28H151.47V55.26ZM140.79 71.34H154.53V73.46H140.79V71.34ZM140.79 67.96H143.45V71.9H140.79V67.96ZM138.79 65.56L138.47 63.44C141.85 63.44 146.37 63.4 150.25 62.9L150.41 64.8C146.47 65.46 142.13 65.56 138.79 65.56ZM147.97 66.02H152.05V67.84H147.97V66.02ZM144.43 55.9C147.13 55.9 149.03 57.24 149.03 59.2C149.03 61.18 147.13 62.5 144.43 62.5C141.71 62.5 139.81 61.18 139.81 59.2C139.81 57.24 141.71 55.9 144.43 55.9ZM144.43 57.84C143.19 57.84 142.33 58.3 142.33 59.2C142.33 60.1 143.19 60.56 144.43 60.56C145.65 60.56 146.51 60.1 146.51 59.2C146.51 58.3 145.65 57.84 144.43 57.84ZM164.658 66.6H177.178V68.72H167.298V72.66H164.658V66.6ZM164.658 71.48H177.438V73.58H164.658V71.48ZM174.398 55.26H177.058V65.76H174.398V55.26ZM170.578 59.56H174.958V61.72H170.578V59.56ZM166.678 56.18C169.438 56.18 171.558 58.08 171.558 60.72C171.558 63.34 169.438 65.26 166.678 65.26C163.898 65.26 161.778 63.34 161.778 60.72C161.778 58.08 163.898 56.18 166.678 56.18ZM166.678 58.42C165.318 58.42 164.318 59.26 164.318 60.72C164.318 62.16 165.318 63.02 166.678 63.02C168.018 63.02 169.018 62.16 169.018 60.72C169.018 59.26 168.018 58.42 166.678 58.42ZM184.116 58.18H186.216V60.26C186.216 64.44 184.456 68.7 181.056 70.3L179.556 68.2C182.616 66.76 184.116 63.3 184.116 60.26V58.18ZM184.676 58.18H186.776V60.26C186.776 63.06 188.216 66.34 191.256 67.74L189.796 69.84C186.396 68.26 184.676 64.2 184.676 60.26V58.18ZM180.276 57.04H190.436V59.22H180.276V57.04ZM191.796 55.26H194.476V73.78H191.796V55.26ZM193.876 62.32H197.156V64.52H193.876V62.32ZM202.377 57.4545L202.1 67.6392H199.501L199.217 57.4545H202.377ZM200.8 72.1847C200.332 72.1847 199.929 72.0189 199.593 71.6875C199.257 71.3513 199.091 70.9489 199.096 70.4801C199.091 70.0161 199.257 69.6184 199.593 69.2869C199.929 68.9555 200.332 68.7898 200.8 68.7898C201.25 68.7898 201.646 68.9555 201.987 69.2869C202.327 69.6184 202.5 70.0161 202.505 70.4801C202.5 70.7926 202.417 71.0791 202.256 71.3395C202.1 71.5952 201.894 71.8011 201.638 71.9574C201.383 72.1089 201.103 72.1847 200.8 72.1847Z" fill="black"/>
</svg>
